<svg xmlns="http://www.w3.org/2000/svg" xmlns:xlink="http://www.w3.org/1999/xlink" width="82" height="82.124" viewBox="0 0 82 82.124"><defs><style>.a{fill:#eaf1ff;}.b{clip-path:url(#a);}.c{fill:#125ae4;}.d{fill:#2972fe;}.e{fill:#e1e9ff;}.f{fill:#89aeff;}.g{fill:#d2dcff;}.h{fill:#aec3ff;}.i{fill:#eff1fa;}.j{fill:#86a2e2;}.k{fill:#fcbeb7;}.l{fill:#2f3d6c;}.m{opacity:0.1;}.n{fill:#6277d7;}.o{fill:#311643;}.p{fill:#91b3fa;}.q{fill:url(#b);}.r{fill:#c9dfff;}.s{fill:#4a5ea3;}.t{fill:#e50000;stroke:#fff;stroke-width:0.5px;}.u{stroke:none;}.v{fill:none;}</style><clipPath id="a"><rect class="a" width="80" height="80" rx="10"/></clipPath><linearGradient id="b" x1="0.183" y1="0.602" x2="0.932" y2="0.268" gradientUnits="objectBoundingBox"><stop offset="0" stop-color="#c6ddff"/><stop offset="1" stop-color="#fff"/></linearGradient></defs><g transform="translate(3002 -1931)"><g transform="translate(-3002 1933.124)"><g transform="translate(0 0)"><rect class="a" width="80" height="80" rx="10"/></g></g><g transform="translate(83.889 6405.124)"><g transform="translate(-3076.233 -4460.031)"><g transform="translate(-0.881 1)"><path class="c" d="M181.5,110.736H150.777a1.565,1.565,0,0,1-1.565-1.565V79.924a1.565,1.565,0,0,1,1.565-1.565H181.5a1.565,1.565,0,0,1,1.565,1.565v29.247a1.565,1.565,0,0,1-1.565,1.565Z" transform="translate(-149.212 -78.359)"/></g><path class="d" d="M181.5,110.736H150.777a1.565,1.565,0,0,1-1.565-1.565V79.924a1.565,1.565,0,0,1,1.565-1.565H181.5a1.565,1.565,0,0,1,1.565,1.565v29.247a1.565,1.565,0,0,1-1.565,1.565Z" transform="translate(-149.212 -78.359)"/><g transform="translate(4.214 3.747)"><path class="e" d="M185.7,98.364H171.124a.47.47,0,1,1,0-.939H185.7a.47.47,0,1,1,0,.939Z" transform="translate(-170.654 -97.424)"/></g><g transform="translate(4.214 6.091)"><path class="e" d="M181.014,110.287h-9.89a.47.47,0,0,1,0-.939h9.89a.47.47,0,0,1,0,.939Z" transform="translate(-170.654 -109.348)"/></g><g transform="translate(4.214 10.199)"><path class="f" d="M173.594,130.922h-2.6a.335.335,0,1,1,0-.671h2.6a.335.335,0,1,1,0,.671Z" transform="translate(-170.654 -130.251)"/></g><g transform="translate(6.262 17.954)"><g transform="translate(0 3.364)"><path class="f" d="M183.1,187.162v8.372a.335.335,0,0,1-.335.335h-1.356a.335.335,0,0,1-.335-.335v-8.372a.335.335,0,0,1,.335-.335h1.356a.335.335,0,0,1,.335.335Z" transform="translate(-181.071 -186.827)"/></g><g transform="translate(3.684)"><path class="f" d="M201.84,170.048v11.736a.335.335,0,0,1-.335.335h-1.356a.335.335,0,0,1-.335-.335V170.048a.335.335,0,0,1,.335-.335h1.356a.336.336,0,0,1,.335.335Z" transform="translate(-199.814 -169.712)"/></g><g transform="translate(8.12 3.364)"><path class="f" d="M224.413,187.162v8.372a.335.335,0,0,1-.335.335h-1.356a.335.335,0,0,1-.335-.335v-8.372a.335.335,0,0,1,.335-.335h1.356a.335.335,0,0,1,.335.335Z" transform="translate(-222.386 -186.827)"/></g><g transform="translate(11.803)"><path class="f" d="M243.155,170.048v11.736a.335.335,0,0,1-.335.335h-1.356a.335.335,0,0,1-.335-.335V170.048a.335.335,0,0,1,.335-.335h1.356a.336.336,0,0,1,.335.335Z" transform="translate(-241.128 -169.712)"/></g><g transform="translate(16.24 5.815)"><path class="f" d="M265.727,199.636v5.921a.335.335,0,0,1-.335.335h-1.356a.335.335,0,0,1-.335-.335v-5.921a.335.335,0,0,1,.335-.335h1.356a.336.336,0,0,1,.335.335Z" transform="translate(-263.7 -199.301)"/></g><g transform="translate(19.923 3.364)"><path class="f" d="M284.469,187.162v8.372a.335.335,0,0,1-.335.335h-1.356a.335.335,0,0,1-.335-.335v-8.372a.335.335,0,0,1,.335-.335h1.356a.336.336,0,0,1,.335.335Z" transform="translate(-282.443 -186.827)"/></g></g><g transform="translate(6.262 22.197)"><g transform="translate(0 2.213)"><path class="g" d="M183.1,202.9v5.28a.335.335,0,0,1-.335.335h-1.356a.335.335,0,0,1-.335-.335V202.9a.335.335,0,0,1,.335-.335h1.356a.336.336,0,0,1,.335.335Z" transform="translate(-181.071 -202.56)"/></g><g transform="translate(3.684)"><path class="g" d="M201.84,191.633v7.494a.335.335,0,0,1-.335.335h-1.356a.335.335,0,0,1-.335-.335v-7.494a.335.335,0,0,1,.335-.335h1.356a.335.335,0,0,1,.335.335Z" transform="translate(-199.814 -191.298)"/></g><g transform="translate(8.12 2.213)"><path class="g" d="M224.413,202.9v5.28a.335.335,0,0,1-.335.335h-1.356a.335.335,0,0,1-.335-.335V202.9a.335.335,0,0,1,.335-.335h1.356a.336.336,0,0,1,.335.335Z" transform="translate(-222.386 -202.56)"/></g><g transform="translate(11.803)"><path class="g" d="M243.155,191.633v7.494a.335.335,0,0,1-.335.335h-1.356a.335.335,0,0,1-.335-.335v-7.494a.335.335,0,0,1,.335-.335h1.356a.335.335,0,0,1,.335.335Z" transform="translate(-241.128 -191.298)"/></g><g transform="translate(16.24 3.827)"><path class="g" d="M265.727,211.1v3.667a.335.335,0,0,1-.335.335h-1.356a.335.335,0,0,1-.335-.335V211.1a.335.335,0,0,1,.335-.335h1.356a.336.336,0,0,1,.335.335Z" transform="translate(-263.7 -210.769)"/></g><g transform="translate(19.923 2.213)"><path class="g" d="M284.469,202.9v5.28a.335.335,0,0,1-.335.335h-1.356a.335.335,0,0,1-.335-.335V202.9a.335.335,0,0,1,.335-.335h1.356a.336.336,0,0,1,.335.335Z" transform="translate(-282.443 -202.56)"/></g></g></g><g transform="translate(-3033.374 -4414.678)"><g transform="translate(0 4.009)"><path class="g" d="M408.953,293.651v-.693a.388.388,0,0,0-.388-.388H392.481a1.469,1.469,0,0,0-1.469,1.469v1.182a1.469,1.469,0,0,0,1.469,1.469h16.084a.388.388,0,0,0,.388-.388v-.693a.388.388,0,0,0-.388-.388H393.072a.591.591,0,0,1,0-1.182h15.493a.388.388,0,0,0,.388-.388Z" transform="translate(-391.012 -292.57)"/></g><g transform="translate(3.62 0)"><path class="h" d="M425.719,272.544v-.693a.388.388,0,0,0-.388-.388H411.545a1.469,1.469,0,0,0-1.469,1.469v1.182a1.469,1.469,0,0,0,1.469,1.469h13.785a.388.388,0,0,0,.388-.388V274.5a.388.388,0,0,0-.388-.388H412.136a.591.591,0,1,1,0-1.182h13.194a.388.388,0,0,0,.388-.388Z" transform="translate(-410.076 -271.463)"/></g><g transform="translate(1.464 5.478)"><path class="i" d="M412.384,300.306v1.182H399.312a.591.591,0,1,1,0-1.182h13.072Z" transform="translate(-398.721 -300.306)"/></g><g transform="translate(5.09 1.469)"><path class="i" d="M431.476,279.2v1.182H418.4a.591.591,0,0,1,0-1.182h13.072Z" transform="translate(-417.813 -279.198)"/></g><g transform="translate(3.62 8.129)"><path class="j" d="M425.719,315.347v-.693a.388.388,0,0,0-.388-.388H411.545a1.469,1.469,0,0,0-1.469,1.469v1.182a1.469,1.469,0,0,0,1.469,1.469h13.785a.388.388,0,0,0,.388-.388v-.693a.388.388,0,0,0-.388-.388H412.136a.591.591,0,1,1,0-1.182h13.194a.388.388,0,0,0,.388-.388Z" transform="translate(-410.076 -314.266)"/></g><g transform="translate(5.09 9.598)"><path class="i" d="M431.476,322v1.182H418.4a.591.591,0,0,1,0-1.182h13.072Z" transform="translate(-417.813 -322.003)"/></g></g><g transform="translate(-3047.777 -4459.696)"><path class="k" d="M132.982,240.245c-.978-.289-1.919-.018-2.1.6s.46,1.36,1.438,1.649a2.551,2.551,0,0,0,1.2.075l4.158,1.171.508-1.963-4.153-.946a2.551,2.551,0,0,0-1.051-.59Z" transform="translate(-129.588 -222.171)"/><path class="k" d="M151,189.309c-.714-.727-1.669-.948-2.131-.493s-.258,1.413.456,2.14a2.551,2.551,0,0,0,1.015.65l3.066,3.042,1.4-1.469-3.171-2.843a2.551,2.551,0,0,0-.632-1.026Z" transform="translate(-148.622 -177.628)"/><path class="f" d="M84.842,174.152l-3.215,7.132L76.494,178.5l-1.837.975s4.2,7.016,7.07,6.217,7.976-8.04,7.056-10.275-3.941-1.27-3.941-1.27Z" transform="translate(-72.657 -164.982)"/><path class="k" d="M97.539,467.7H95.2l-1.115-9.041h3.46Z" transform="translate(-83.945 -410.997)"/><path class="l" d="M90.205,507.976h0a2.013,2.013,0,0,0-.112.663h0a.8.8,0,0,0,.8.8h7.259a.543.543,0,0,0,.543-.543v-.3a2.321,2.321,0,0,0-.38-2.028s-.919.877-2.292-.5l-.4-.733-2.931,2.143-1.625.2c-.355.044-.671-.007-.853.3Z" transform="translate(-84.642 -451.329)"/><path class="k" d="M77.587,151.009l-.047-3.162,1.95-1.215,2.12,2.593Z" transform="translate(-65.767 -141.381)"/><path class="m" d="M93.264,151.009l-.126-3.083,2.029-1.294-.689,3.815Z" transform="translate(-81.443 -141.381)"/><circle class="k" cx="3.467" cy="3.467" r="3.467" transform="translate(8.347 0.515)"/><path class="n" d="M80.156,299.309l3.23,21.98h4.052L86.9,308.743l-.284-6.6.822-3.14a14.03,14.03,0,0,0,.691-1.544c.356-.955.637-2.1.22-2.642a1.981,1.981,0,0,0-1.1-.458,11.33,11.33,0,0,0-1.134-.161,50.739,50.739,0,0,0-5.805-.089l-.087,2.86-.048,1.6-.023.743Z" transform="translate(-73.07 -268.776)"/><path class="k" d="M68.441,460.4l-2.319.341L63.7,451.957l3.423-.5Z" transform="translate(-50.717 -404.774)"/><path class="l" d="M59.459,503.843h0a2.013,2.013,0,0,0-.014.672h0a.8.8,0,0,0,.9.671l7.182-1.056a.543.543,0,0,0,.458-.616l-.044-.3a2.32,2.32,0,0,0-.671-1.951s-.782,1-2.34-.158l-.507-.667-2.588,2.547-1.578.434c-.345.095-.664.091-.8.422Z" transform="translate(-49.689 -447.102)"/><path class="n" d="M62.55,292.175l.443,3.815,2.416,8.04,3.977,13.237,4.009-.589-3.6-18.82.356-3.227s.116-.321.249-.79c.264-.929.6-2.442.231-3.214a.9.9,0,0,0-.187-.27,1.5,1.5,0,0,0-.825-.268,31.222,31.222,0,0,0-6.483.6l-.588,1.485Z" transform="translate(-55.515 -265.308)"/><path class="f" d="M71.415,160.791l-3.939,1.891s-4.175,12.369-4.175,13-1.182,1.024-.473,1.733-1.32,1.31-.227,1.876,7.912,3.664,8.671,3.385c2.091-.77-.089-3.6-.089-3.6s1.571-1.265,1.335-1.9,1.418-12.684,1.418-12.684l-2.521-3.7Z" transform="translate(-56.018 -153.616)"/><path class="o" d="M81.955,112.813l-.446.892s-.446-1.606-1.16-1.962a1.374,1.374,0,0,1-.8-.892s-.892,1.16-1.516.892-.892-.446-.178-1.516.535-.535.535-.535.624-.892.535-.624.535-.714.535-.446.446-.535.446-.268,1.873-.624,1.606-.268,1.606-.714,2.5.714,2.129,1.163,1.689,2.053a9.552,9.552,0,0,0-.262,3.3H84.2s-1.267-2.408-2.249-1.338Z" transform="translate(-69.928 -108)"/><path class="f" d="M83.98,181.45l.652,7.8-5.837.063-1.133,1.744s7.075,4.1,9.2,2,3.07-10.9,1.181-12.409S83.98,181.45,83.98,181.45Z" transform="translate(-73.232 -170.332)"/></g><g transform="translate(120.419 17.631)"><g transform="translate(-3196.905 -4442.07)"><path class="p" d="M227.007,429.644c-.1-.175-.554.012-.637-.147s.336-.4.574-.952c.043-.1.314-.727.114-.92-.381-.367-2.123,1.147-2.733.652a8.154,8.154,0,0,0-.632-.678c-.161-.14-.259-.2-.353-.18-.134.033-.144.212-.288.565-.215.528-.342.5-.468.918-.093.313-.072.495-.181.53-.155.05-.3-.282-.494-.252s-.322.417-.36.706a2.709,2.709,0,0,0,.238,1.277,3.208,3.208,0,0,1-.086,1.913l-2.744,7.731c.606-1.586,2.36-5.935,3.1-7.551a1.914,1.914,0,0,1,.93-1.126c.464-.18,1.1-.072,1.915-.268.095-.023.358-.09.392-.245.027-.128-.128-.2-.1-.32.032-.161.337-.163.711-.349a2.217,2.217,0,0,0,.57-.421c.043-.04.677-.648.538-.882Z" transform="translate(-214.057 -424.084)"/><path class="p" d="M181.334,474.21c-.116,0-.154.275-.256.27s-.1-.28-.3-.557c-.036-.05-.266-.364-.419-.321-.29.081-.05,1.373-.469,1.53a4.64,4.64,0,0,0-.515.115c-.115.039-.174.068-.19.121-.022.075.063.132.194.3.2.258.145.311.315.494.127.136.222.178.208.242-.02.091-.224.065-.266.17s.112.278.243.38a1.542,1.542,0,0,0,.7.252,1.827,1.827,0,0,1,.914.594l3,3.577c-.6-.755-2.232-2.871-2.813-3.7a1.09,1.09,0,0,1-.285-.781c.046-.28.282-.562.421-1.017.016-.053.059-.2-.007-.263s-.135.005-.187-.041c-.07-.062.017-.212.034-.45a1.263,1.263,0,0,0-.042-.4C181.6,474.7,181.489,474.209,181.334,474.21Z" transform="translate(-179.18 -464.58)"/><path class="p" d="M214.97,463.456l-.07-.624.032-.047a1.155,1.155,0,0,0,.224-.635c0-.032,0-.064,0-.1a.976.976,0,0,1,.071-.481c.047-.105.18-.349.38-.319a.226.226,0,0,1,.125.061l.014-.022a.688.688,0,0,1,.159-.175.8.8,0,0,0,.133-.135c.026-.032.046-.061.063-.084a.293.293,0,0,1,.238-.156.313.313,0,0,1,.238.181,1.5,1.5,0,0,1,.138.273.472.472,0,0,0,.023.054c.041.06.374,0,.5-.017.282-.047.526-.088.627.09.072.127.019.3-.164.513a1.019,1.019,0,0,1-.171.16.209.209,0,0,1,.1.131h0c.038.151-.092.3-.386.451a1.039,1.039,0,0,1-.309.11,1.219,1.219,0,0,1-.173.015.206.206,0,0,1-.025.093.309.309,0,0,1-.321.129,2.522,2.522,0,0,1-.455-.073,1.1,1.1,0,0,0-.287-.043c-.142.011-.251.125-.38.272l-.321.375Z" transform="translate(-210.501 -453.306)"/><path class="p" d="M196.923,436.041l-.586.226-.054-.019a1.155,1.155,0,0,0-.671-.056c-.031.008-.062.018-.093.027a.976.976,0,0,1-.483.053c-.114-.019-.383-.086-.4-.287a.226.226,0,0,1,.027-.137l-.025-.008a.688.688,0,0,1-.209-.109.8.8,0,0,0-.164-.095c-.038-.017-.07-.029-.1-.04a.293.293,0,0,1-.212-.191.313.313,0,0,1,.115-.276,1.5,1.5,0,0,1,.229-.2.477.477,0,0,0,.046-.036c.048-.055-.091-.363-.143-.479-.117-.261-.218-.487-.072-.629.1-.1.281-.093.538.028a1.02,1.02,0,0,1,.2.125.209.209,0,0,1,.1-.13h0c.137-.075.316.012.535.259a1.039,1.039,0,0,1,.185.271,1.213,1.213,0,0,1,.059.164.205.205,0,0,1,.1,0c.1.026.176.118.207.278a2.52,2.52,0,0,1,.045.459,1.1,1.1,0,0,0,.031.289c.047.134.185.211.36.3l.444.215Z" transform="translate(-192.129 -429.608)"/><path class="p" d="M214.97,418.349l-.07-.624.032-.047a1.155,1.155,0,0,0,.224-.635c0-.032,0-.064,0-.1a.976.976,0,0,1,.071-.481c.047-.105.18-.349.38-.319a.226.226,0,0,1,.125.061l.014-.022a.686.686,0,0,1,.159-.175.8.8,0,0,0,.133-.135c.026-.032.046-.061.063-.084a.293.293,0,0,1,.238-.156.313.313,0,0,1,.238.181,1.505,1.505,0,0,1,.138.273.47.47,0,0,0,.023.054c.041.06.374,0,.5-.017.282-.047.526-.088.627.09.072.127.019.3-.164.513a1.021,1.021,0,0,1-.171.16.209.209,0,0,1,.1.131h0c.038.151-.092.3-.386.451a1.039,1.039,0,0,1-.309.11,1.214,1.214,0,0,1-.173.015.206.206,0,0,1-.025.093.309.309,0,0,1-.321.129,2.52,2.52,0,0,1-.455-.073,1.1,1.1,0,0,0-.287-.043c-.142.011-.251.125-.38.272l-.321.375Z" transform="translate(-210.501 -413.755)"/><path class="p" d="M207.98,431l-.131-.082-.032-.151.032.151-.153.017c0-.014-.011-.047-.023-.1a21.827,21.827,0,0,1-.45-2.466,25.145,25.145,0,0,1-.2-2.854c-.014-.962.031-1.69.068-2.275.028-.441.061-.861.094-1.271a23.766,23.766,0,0,0,.109-3.27,3.03,3.03,0,0,0-.353-1.352,2.871,2.871,0,0,0-.737-.865l.192-.242a3.185,3.185,0,0,1,.816.959,3.318,3.318,0,0,1,.39,1.484,24,24,0,0,1-.109,3.311c-.033.408-.066.826-.093,1.266-.036.58-.081,1.3-.067,2.25a24.839,24.839,0,0,0,.2,2.819,21.485,21.485,0,0,0,.444,2.433c.036.147.043.178.007.236h0Z" transform="translate(-202.872 -414.293)"/><path class="p" d="M193.186,403.069h-.038a.987.987,0,0,1-.724-.467,2.159,2.159,0,0,1-.258-.615,3.855,3.855,0,0,1-.142-.637.626.626,0,0,1,.017-.4.471.471,0,0,1,.217-.2.174.174,0,0,1,.012-.091c.053-.129.192-.112.268-.1a.76.76,0,0,0,.138.008.388.388,0,0,0,.191-.064.858.858,0,0,1,.258-.1.92.92,0,0,1,.486.039,1.353,1.353,0,0,1,.689.671,2.358,2.358,0,0,1,.254.581.69.69,0,0,1,.035.385c-.038.147-.128.232-.355.418a4.14,4.14,0,0,1-.46.352A1.16,1.16,0,0,1,193.186,403.069Z" transform="translate(-190.424 -400.382)"/></g><g transform="translate(-3198.308 -4427.129)"><g transform="translate(0 0)"><path class="g" d="M32.043,70.22H26.518a.237.237,0,0,0-.225.31l.264.811.134.41,1.913,5.87a.387.387,0,0,0,.368.267h6.9a.387.387,0,0,0,.368-.267l1.914-5.87.134-.41.264-.811a.237.237,0,0,0-.225-.31H32.043Z" transform="translate(-26.281 -70.22)"/></g><g transform="translate(0.276 1.121)"><path class="h" d="M39.2,75.06l-.134.41H27.607l-.134-.41Z" transform="translate(-27.473 -75.06)"/></g></g></g><g transform="translate(-3054.912 -4416.039)"><path class="q" d="M283.123,165.951a13.87,13.87,0,0,0,4.684,1.255c-.219.51-1.777,3.061-6.4,5.164a40,40,0,0,1-4.6-2.246c.054.077,4.923-1.715,6.317-4.173Z" transform="translate(-276.806 -165.951)"/><g transform="translate(6.24 1.104) rotate(19.173)"><path class="r" d="M.019.168A.265.265,0,0,1,.227.059L2.939,0a.137.137,0,0,1,.131.186h0A.189.189,0,0,1,2.9.308L.1.321A.1.1,0,0,1,.019.168Z" transform="translate(0 0)"/></g><g transform="translate(5.519 1.812) rotate(19.173)"><path class="r" d="M.01.15A.244.244,0,0,1,.224.019L2.109,0a.119.119,0,0,1,.113.16h0A.163.163,0,0,1,2.07.266L.089.279A.089.089,0,0,1,.01.15Z" transform="translate(0 0)"/></g><g transform="translate(4.774 2.39) rotate(20.476)"><path class="r" d="M.013.141A.251.251,0,0,1,.226.019L2.416,0a.119.119,0,0,1,.111.166h0a.164.164,0,0,1-.151.1L.092.279A.091.091,0,0,1,.013.141Z" transform="translate(0 0)"/></g><g transform="translate(3.122 3.512) rotate(21.69)"><path class="r" d="M.005.166A.229.229,0,0,1,.216.018L1.475,0A.117.117,0,0,1,1.59.147h0a.161.161,0,0,1-.154.12L.084.279A.083.083,0,0,1,.005.166Z" transform="translate(0 0)"/></g><g transform="translate(3.858 2.936) rotate(20.476)"><path class="r" d="M.02.124A.266.266,0,0,1,.23.02L3.116,0a.121.121,0,0,1,.108.179h0a.167.167,0,0,1-.146.087L.1.28A.1.1,0,0,1,.02.124Z" transform="translate(0 0)"/></g></g><g transform="translate(-3064.456 -4414.302)"><g transform="translate(10.63 0) rotate(25.881)"><path class="s" d="M5.275,0H0V4.571H5.275V0Z" transform="translate(0 0)"/></g><g transform="translate(5.152 1.244) rotate(-7.207)"><path class="s" d="M5.275,0H0V4.571H5.275V0Z"/></g><g transform="translate(7.774 2.585)"><path class="g" d="M233.776,332.169h-9.288v9.288h9.288v-9.288Z" transform="translate(-224.488 -332.169)"/></g><g transform="translate(2.658 2.585)"><path class="h" d="M203.571,332.169h-5.116v9.288h5.116v-9.288Z" transform="translate(-198.455 -332.169)"/></g><g transform="translate(0 2.585)"><path class="j" d="M187.59,332.169l-2.658,2.847H190.7l2-2.847Z" transform="translate(-184.932 -332.169)"/></g><g transform="translate(7.774 2.572)"><path class="h" d="M233.776,332.114l1.9,2.884H226.4l-1.911-2.9,9.288.014Z" transform="translate(-224.488 -332.1)"/></g><g transform="translate(9.371 0.614)"><path class="l" d="M232.987,322.216l-.374,1.881,1.009-1.961-.636.08Z" transform="translate(-232.613 -322.136)"/></g></g></g><g class="t" transform="translate(-2930 1931)"><rect class="u" width="10" height="10" rx="5"/><rect class="v" x="0.25" y="0.25" width="9.5" height="9.5" rx="4.75"/></g></g></svg>